Coordinates
version=1
nRows=24
nColumns=38
inDegrees=no

Units are S.I. units (second, meters, Newtons, ...)
If the header above contains a line with 'inDegrees', this indicates whether rotational values are in degrees (yes) or radians (no).

endheader
time	pelvis_tilt	pelvis_list	pelvis_rotation	pelvis_tx	pelvis_ty	pelvis_tz	hip_flexion_r	hip_adduction_r	hip_rotation_r	knee_angle_r	ankle_angle_r	subtalar_angle_r	mtp_angle_r	hip_flexion_l	hip_adduction_l	hip_rotation_l	knee_angle_l	ankle_angle_l	subtalar_angle_l	mtp_angle_l	lumbar_extension	lumbar_bending	lumbar_rotation	arm_flex_r	arm_add_r	arm_rot_r	elbow_flex_r	pro_sup_r	wrist_flex_r	wrist_dev_r	arm_flex_l	arm_add_l	arm_rot_l	elbow_flex_l	pro_sup_l	wrist_flex_l	wrist_dev_l
1.05	-3.03436	1.37715	1.42054	0.723946	0.537152	1.02275	-0.0254813	-0.0452196	-0.114609	0.590847	-0.428513	0	0	0.444039	-0.0507217	-0.231756	0.242844	-0.216594	0	0	0.1108	-0.0502414	-0.0729029	0.0450717	-0.199524	0.251691	0.515312	1.5708	0	0	-0.238314	-0.284512	0.404288	0.448303	0.913764	0	0
1.06	-3.06862	1.37736	1.45266	0.725306	0.524675	1.02358	-0.00144803	-0.0547708	-0.0970579	0.640091	-0.469721	0	0	0.439073	-0.0424258	-0.233443	0.261198	-0.199542	0	0	0.111354	-0.0571894	-0.0749168	0.0472161	-0.194259	0.268874	0.482886	1.5708	0	0	-0.23337	-0.286991	0.406081	0.450457	0.910605	0	0
1.07	-3.09364	1.37902	1.47392	0.726624	0.512549	1.0245	0.0228185	-0.0625082	-0.0810418	0.689193	-0.513484	0	0	0.430468	-0.0363919	-0.235612	0.27697	-0.183233	0	0	0.109141	-0.0611845	-0.0757669	0.0489585	-0.191435	0.289797	0.454499	1.5708	0	0	-0.226985	-0.289496	0.409476	0.454397	0.908227	0	0
1.08	-3.1076	1.38282	1.48393	0.727856	0.50082	1.02573	0.0459014	-0.0679623	-0.0682793	0.736638	-0.557969	0	0	0.417759	-0.0323746	-0.238774	0.288802	-0.168624	0	0	0.102944	-0.0625281	-0.076663	0.0514071	-0.189749	0.313397	0.428489	1.5708	0	0	-0.218107	-0.291942	0.414161	0.458135	0.907338	0	0
1.09	-3.11556	1.38686	1.48481	0.728765	0.489172	1.02715	0.0699292	-0.0717991	-0.0548236	0.782884	-0.591925	0	0	0.402891	-0.0308605	-0.25013	0.295759	-0.15701	0	0	0.096558	-0.0619577	-0.0744483	0.0537488	-0.188665	0.33968	0.403186	1.5708	0	0	-0.208199	-0.293985	0.419261	0.461543	0.908346	0	0
1.1	-3.11402	1.39182	1.47367	0.729422	0.47753	1.02886	0.0933873	-0.0733559	-0.0409428	0.827803	-0.60372	0	0	0.384713	-0.0314036	-0.260101	0.297563	-0.147927	0	0	0.0891323	-0.0589341	-0.0694993	0.0553575	-0.18836	0.366537	0.379815	1.5708	0	0	-0.197185	-0.295561	0.425046	0.464799	0.912749	0	0
1.11	-3.10241	1.39691	1.45145	0.729943	0.465994	1.03079	0.116619	-0.0729207	-0.028735	0.871357	-0.593705	0	0	0.364451	-0.0337137	-0.267712	0.294806	-0.139625	0	0	0.0819788	-0.0536787	-0.0650072	0.0582966	-0.188709	0.401117	0.355698	1.5708	0	0	-0.186784	-0.296352	0.42852	0.468489	0.918986	0	0
1.12	-3.08478	1.4017	1.42395	0.73039	0.454498	1.03285	0.139425	-0.0712914	-0.0187122	0.912586	-0.564051	0	0	0.343254	-0.0367901	-0.274301	0.288905	-0.134256	0	0	0.07507	-0.0474251	-0.0618949	0.0606997	-0.189142	0.436947	0.333492	1.5708	0	0	-0.177134	-0.296854	0.428714	0.473195	0.927478	0	0
1.13	-3.0641	1.40505	1.39551	0.730945	0.443053	1.03494	0.16312	-0.0691946	-0.01268	0.951718	-0.519294	0	0	0.323195	-0.0400329	-0.281102	0.281747	-0.131321	0	0	0.0701524	-0.0405993	-0.0623444	0.0630707	-0.189514	0.476575	0.312264	1.5708	0	0	-0.169443	-0.296925	0.42395	0.479144	0.940729	0	0
1.14	-3.04361	1.4067	1.3695	0.731624	0.431717	1.03702	0.188116	-0.0674738	-0.0117074	0.987649	-0.471344	0	0	0.304922	-0.0427477	-0.28883	0.27434	-0.13072	0	0	0.0671314	-0.0337274	-0.0653382	0.0640106	-0.189979	0.514095	0.294108	1.5708	0	0	-0.163122	-0.297274	0.416061	0.487051	0.957809	0	0
1.15	-3.02276	1.40803	1.34583	0.732488	0.420437	1.03924	0.212237	-0.0658093	-0.0138033	1.01856	-0.422304	0	0	0.286649	-0.0443204	-0.296392	0.266481	-0.131678	0	0	0.0645433	-0.0271749	-0.071007	0.0639147	-0.190525	0.549387	0.278288	1.5708	0	0	-0.15775	-0.297338	0.403498	0.496175	0.977199	0	0
1.16	-3.00231	1.40999	1.3245	0.733484	0.409233	1.04163	0.234498	-0.0642661	-0.0168739	1.04385	-0.375345	0	0	0.267321	-0.0447142	-0.303022	0.258042	-0.1338	0	0	0.0613053	-0.0211891	-0.0784214	0.0629176	-0.191068	0.578271	0.265218	1.5708	0	0	-0.15327	-0.297437	0.386853	0.507411	0.998731	0	0
1.17	-2.98137	1.41154	1.30454	0.734579	0.398128	1.04403	0.256081	-0.0625467	-0.0210116	1.06402	-0.334247	0	0	0.248532	-0.0449627	-0.310431	0.249346	-0.137413	0	0	0.0583799	-0.0153204	-0.0870426	0.0604154	-0.191952	0.599469	0.255435	1.5708	0	0	-0.149117	-0.298422	0.37075	0.520908	1.01939	0	0
1.18	-2.95905	1.41147	1.28493	0.735727	0.387012	1.04633	0.277997	-0.0601363	-0.0264925	1.07873	-0.294487	0	0	0.231619	-0.0457575	-0.317825	0.24036	-0.142486	0	0	0.0578328	-0.00910475	-0.0972771	0.0566402	-0.193106	0.6164	0.247485	1.5708	0	0	-0.146554	-0.299198	0.351667	0.535942	1.04161	0	0
1.19	-2.9317	1.41033	1.2615	0.736919	0.375981	1.04856	0.299531	-0.056522	-0.0325436	1.08765	-0.261349	0	0	0.215833	-0.0477076	-0.323689	0.23118	-0.14792	0	0	0.0582664	-0.00193064	-0.108232	0.0517464	-0.194551	0.623836	0.241899	1.5708	0	0	-0.144748	-0.300814	0.334194	0.553125	1.06233	0	0
1.2	-2.90088	1.40813	1.23552	0.73811	0.365059	1.0507	0.320848	-0.0519695	-0.0391874	1.09131	-0.232513	0	0	0.201063	-0.0506166	-0.327048	0.221657	-0.153581	0	0	0.0595688	0.00593016	-0.119595	0.0460342	-0.196334	0.625253	0.2382	1.5708	0	0	-0.143592	-0.303219	0.318052	0.572371	1.08089	0	0
1.21	-2.86957	1.40518	1.20938	0.739235	0.354209	1.05274	0.341842	-0.0464111	-0.0465548	1.08999	-0.199775	0	0	0.186852	-0.0541085	-0.328906	0.211796	-0.160468	0	0	0.0614098	0.0139011	-0.131152	0.0399866	-0.198116	0.621976	0.235719	1.5708	0	0	-0.144174	-0.304416	0.29494	0.593765	1.10402	0	0
1.22	-2.83448	1.40306	1.18085	0.740379	0.34345	1.05481	0.3602	-0.0402254	-0.0544068	1.0829	-0.173291	0	0	0.1716	-0.0579624	-0.328989	0.201924	-0.166491	0	0	0.0613626	0.0220708	-0.143483	0.0342213	-0.199833	0.613095	0.234433	1.5708	0	0	-0.144276	-0.306634	0.274913	0.616376	1.12251	0	0
1.23	-2.80357	1.40015	1.15619	0.741456	0.332765	1.05666	0.378583	-0.034108	-0.061658	1.07161	-0.145957	0	0	0.157205	-0.0617627	-0.330232	0.192083	-0.173188	0	0	0.0618446	0.029862	-0.154754	0.0280963	-0.201613	0.600788	0.234232	1.56866	0	0	-0.144793	-0.308587	0.253766	0.640321	1.14115	0	0
1.24	-2.77775	1.39644	1.13605	0.742452	0.322136	1.05828	0.397078	-0.0281179	-0.0683604	1.05634	-0.119083	0	0	0.143757	-0.0654255	-0.333481	0.182239	-0.180312	0	0	0.0631338	0.0371797	-0.164617	0.0215164	-0.203578	0.587659	0.235024	1.5639	0	0	-0.145657	-0.310372	0.232451	0.665379	1.15974	0	0
1.25	-2.75962	1.39117	1.12267	0.743333	0.31169	1.05956	0.416901	-0.0224905	-0.0752989	1.03709	-0.0935699	0	0	0.13257	-0.0687071	-0.337477	0.172866	-0.187012	0	0	0.0660602	0.0440381	-0.172844	0.0149584	-0.205521	0.572622	0.236425	1.55534	0	0	-0.14648	-0.312029	0.211774	0.690981	1.17821	0	0
1.26	-2.7464	1.38518	1.11399	0.744162	0.301369	1.06054	0.436686	-0.0171408	-0.0823733	1.01313	-0.0707644	0	0	0.122779	-0.0716064	-0.341474	0.163981	-0.19312	0	0	0.0696245	0.0505529	-0.180038	0.00869172	-0.207368	0.556336	0.238009	1.54364	0	0	-0.147204	-0.313482	0.19186	0.717224	1.19552	0	0
1.27	-2.73427	1.3793	1.10681	0.744967	0.291085	1.06131	0.454906	-0.0117105	-0.089086	0.983871	-0.0505853	0	0	0.11327	-0.0743548	-0.344897	0.155481	-0.198662	0	0	0.0727385	0.056907	-0.186739	0.00268354	-0.209184	0.542331	0.2395	1.53232	0	0	-0.147443	-0.315214	0.173842	0.744009	1.21249	0	0
1.28	-2.7212	1.37352	1.09946	0.745728	0.280794	1.06186	0.471169	-0.00602341	-0.0953793	0.949162	-0.0325021	0	0	0.103857	-0.0774575	-0.347247	0.147447	-0.203537	0	0	0.0754642	0.0633879	-0.19349	-0.00291446	-0.210703	0.530455	0.240472	1.52135	0	0	-0.147296	-0.317445	0.157866	0.771005	1.2296	0	0
